#!OML:ASF H:\Male1\Project 1\Capture day 1\Session 1\Male1.ASF
:FULLY-SPECIFIED
:DEGREES
210
root 11.0387 13.4686 1.2267 -36.3124 82.8454 -54.9478
lowerback 29.9266 -0.21343 1.62426
upperback 10.7274 1.23809 1.33928
thorax -4.36341 0.981145 0.115008
lowerneck -3.97537 4.82781 7.69175
upperneck -27.0986 5.90848 -11.1871
head -6.98363 3.68058 -5.3681
rclavicle 6.55989e-015 3.61788e-014
rhumerus 45.4918 17.0816 -73.4789
rradius 75.2784
rwrist -59.9186
rhand -36.6209 8.84163
rfingers 7.12502
rthumb -9.70894 -20.9146
lclavicle 6.55989e-015 3.61788e-014
lhumerus 40.1895 -5.79454 71.4435
lradius 67.6177
lwrist 52.6177
lhand -21.3267 14.3808
lfingers 7.12502
lthumb 5.05891 44.3004
rfemur -48.4369 0.361146 32.8864
rtibia 81.2672
rfoot -26.5997 -20.2809
rtoes -31.3497
lfemur -54.2365 0.935781 -17.724
ltibia 83.5249
lfoot -26.5917 3.11694
ltoes -15.4712
211
root 11.5631 13.7236 1.24046 -45.7291 82.9193 -65.0396
lowerback 28.0455 -0.809086 2.97308
upperback 10.259 0.709869 1.32001
thorax -4.00468 0.722843 -0.499155
lowerneck -5.26573 4.89588 7.76389
upperneck -26.3715 5.98472 -11.0421
head -6.52428 3.67258 -5.24249
rclavicle 4.57205e-014 4.90998e-014
rhumerus 54.7229 14.0369 -65.8735
rradius 80.1866
rwrist -64.8766
rhand -37.5211 8.13055
rfingers 7.12502
rthumb -10.5773 -21.5833
lclavicle 4.57205e-014 4.90998e-014
lhumerus 48.8264 -5.00903 64.9631
lradius 72.4307
lwrist 51.4141
lhand -26.1184 22.5674
lfingers 7.12502
lthumb 0.431371 52.5467
rfemur -44.4754 0.443933 33.059
rtibia 77.2375
rfoot -24.744 -19.9902
rtoes -32.1863
lfemur -51.0791 0.759426 -16.8791
ltibia 80.5973
lfoot -24.6014 2.65356
ltoes -15.1473
212
root 12.1502 14.0178 1.26316 -44.2594 83.9148 -62.8308
lowerback 27.4561 -0.991561 2.30362
upperback 9.98065 0.230089 0.966841
thorax -4.05185 0.469715 -0.356637
lowerneck -6.52837 4.92565 7.1238
upperneck -25.3245 6.04912 -10.6053
head -6.01256 3.68885 -4.8886
rclavicle -1.51076e-014 -1.0138e-014
rhumerus 59.5592 8.71708 -62.564
rradius 86.1361
rwrist -69.3931
rhand -36.439 5.95727
rfingers 7.12502
rthumb -9.53342 -23.8071
lclavicle -1.51076e-014 -1.0138e-014
lhumerus 56.0307 -2.29886 58.5153
lradius 74.9237
lwrist 51.9824
lhand -34.255 21.8064
lfingers 7.12502
lthumb -7.42573 51.6561
rfemur -39.0168 0.480428 31.4491
rtibia 72.7429
rfoot -21.5423 -19.6332
rtoes -31.4622
lfemur -45.5442 0.452244 -17.8168
ltibia 76.6185
lfoot -22.1988 2.30605
ltoes -16.2457
213
root 12.7881 14.3082 1.2775 -48.426 84.2265 -66.6657
lowerback 26.163 -1.3491 2.5788
upperback 9.49772 -0.266025 0.93369
thorax -3.98209 0.204855 -0.405904
lowerneck -7.92075 4.88682 6.65682
upperneck -23.9484 5.87258 -10.9596
head -5.35656 3.60562 -4.80613
rclavicle -7.55382e-015 -6.36111e-015
rhumerus 64.7678 2.33579 -59.1398
rradius 89.1073
rwrist -73.6885
rhand -35.0255 6.11166
rfingers 7.12502
rthumb -8.16938 -23.7104
lclavicle -7.55382e-015 -6.36111e-015
lhumerus 60.6557 2.45867 54.5416
lradius 78.4694
lwrist 53.8425
lhand -34.3564 21.7757
lfingers 7.12502
lthumb -7.5236 51.6219
rfemur -33.6686 0.139373 30.9521
rtibia 67.5368
rfoot -17.1158 -19.3467
rtoes -32.1637
lfemur -40.316 0.22773 -17.7697
ltibia 72.1569
lfoot -19.1723 1.85458
ltoes -17.8311
214
root 13.4661 14.58 1.32143 -54.9557 82.6579 -72.199
lowerback 25.5491 -1.17901 3.77071
upperback 8.51657 0.154905 1.27422
thorax -4.75164 0.360506 -0.838359
lowerneck -7.82173 4.74645 6.0188
upperneck -22.0788 5.78625 -10.1254
head -4.84838 3.47574 -4.3474
rclavicle -1.86858e-014 -5.20816e-014
rhumerus 65.9675 -3.83986 -55.7526
rradius 90.8626
rwrist -75.0276
rhand -33.64 4.52383
rfingers 7.12502
rthumb -6.83207 -25.3459
lclavicle -1.86858e-014 -5.20816e-014
lhumerus 63.2942 5.78891 51.182
lradius 83.2537
lwrist 55.6691
lhand -36.6565 21.748
lfingers 7.12502
lthumb -9.74328 51.5026
rfemur -27.1928 0.417195 32.5405
rtibia 61.5274
rfoot -12.6194 -19.0218
rtoes -30.6211
lfemur -34.2561 1.58223 -15.6286
ltibia 67.1309
lfoot -15.3145 0.654666
ltoes -18.7887
215
root 14.2909 14.8858 1.29449 -68.9529 84.116 -85.5785
lowerback 23.3287 -1.78451 4.31507
upperback 7.24251 -0.710376 1.29642
thorax -5.08444 -0.12763 -0.888389
lowerneck -8.51051 4.41636 5.77089
upperneck -18.5075 5.25945 -10.2461
head -3.67634 3.07877 -4.18646
rclavicle -1.61016e-014 -3.10104e-014
rhumerus 64.0904 -9.16722 -49.0908
rradius 92.7954
rwrist -75.6212
rhand -34.368 2.34933
rfingers 7.12502
rthumb -7.53473 -27.4965
lclavicle -1.61016e-014 -3.10104e-014
lhumerus 63.4369 8.62554 48.6085
lradius 87.1628
lwrist 57.1806
lhand -40.5995 21.0544
lfingers 7.12502
lthumb -13.5456 50.5938
rfemur -20.1043 -3.53219 30.6613
rtibia 54.8937
rfoot -8.9574 -16.5418
rtoes -27.9558
lfemur -27.1637 0.171505 -16.5857
ltibia 60.6152
lfoot -11.2001 0.301843
ltoes -19.7009
216
root 15.1599 15.1482 1.30003 -71.7507 85.5883 -87.5233
lowerback 19.3709 -1.45759 3.2462
upperback 6.56232 -0.832287 1.05778
thorax -3.7939 -0.228761 -0.545682
lowerneck -8.80025 4.31486 5.88849
upperneck -14.0997 5.14271 -9.81329
head -2.32501 2.81815 -3.93017
rclavicle 7.95139e-015 3.4191e-014
rhumerus 59.0084 -13.263 -40.9509
rradius 94.6823
rwrist -75.4814
rhand -31.6674 1.33792
rfingers 7.12502
rthumb -4.92757 -28.5848
lclavicle 7.95139e-015 3.4191e-014
lhumerus 63.1923 11.1435 45.8102
lradius 90.6135
lwrist 57.7823
lhand -41.5886 21.0869
lfingers 7.12502
lthumb -14.4988 50.5603
rfemur -12.9413 -6.43293 27.7115
rtibia 48.2572
rfoot -3.0846 -13.802
rtoes -26.0621
lfemur -19.2886 0.806795 -17.9632
ltibia 53.2227
lfoot -6.25634 -0.75862
ltoes -22.8791
217
root 16.0711 15.4529 1.32398 -70.0635 85.5009 -84.0671
lowerback 16.8652 -1.08232 2.8936
upperback 5.56903 -0.585033 1.22145
thorax -3.52585 -0.158457 -0.244532
lowerneck -9.22614 4.48986 6.56932
upperneck -8.35542 5.40177 -9.81549
head -0.589617 2.7163 -4.26695
rclavicle 6.16232e-015 4.25399e-014
rhumerus 51.3704 -14.4775 -31.6209
rradius 96.3715
rwrist -71.9905
rhand -28.7135 -3.27489
rfingers 7.12502
rthumb -2.07497 -33.2445
lclavicle 6.16232e-015 4.25399e-014
lhumerus 59.7916 13.0078 41.9757
lradius 93.0543
lwrist 55.1776
lhand -43.9619 19.6864
lfingers 7.12502
lthumb -16.7845 48.9809
rfemur -5.44268 -6.47431 25.9999
rtibia 42.2099
rfoot 4.05848 -13.5898
rtoes -23.3388
lfemur -10.2631 1.45554 -17.1824
ltibia 45.1803
lfoot 0.237986 -2.10476
ltoes -7.91086
218
root 16.9844 15.7775 1.3398 -66.3153 85.26 -78.3054
lowerback 14.9019 -0.765599 2.74096
upperback 4.32337 -0.325316 1.44481
thorax -3.78424 -0.0817971 0.018969
lowerneck -9.17121 4.965 6.28652
upperneck -2.02186 6.23 -8.77166
head 1.50207 2.98579 -3.72636
rclavicle -1.55052e-014 -3.15074e-014
rhumerus 43.3929 -12.5418 -21.6863
rradius 96.8251
rwrist -71.4256
rhand -27.2583 -5.42025
rfingers 7.12502
rthumb -0.669554 -35.3989
lclavicle -1.55052e-014 -3.15074e-014
lhumerus 55.128 13.989 37.3197
lradius 95.2486
lwrist 49.3385
lhand -44.5816 18.4027
lfingers 7.12502
lthumb -17.381 47.6455
rfemur 0.767253 -1.79869 25.539
rtibia 38.3038
rfoot 10.6289 -18.0194
rtoes -23.4532
lfemur -1.70254 -0.483069 -16.9207
ltibia 37.879
lfoot 7.58682 -0.0476088
ltoes -12.0728
219
root 17.9256 16.203 1.31419 -53.4252 85.2294 -64.3411
lowerback 12.127 -0.75301 2.82073
upperback 3.62208 -0.472024 1.13133
thorax -3.01981 -0.179434 -0.347125
lowerneck -10.4351 5.82129 6.07426
upperneck 3.3764 7.54201 -8.26151
head 3.24539 3.51385 -3.02389
rclavicle 1.63997e-014 -7.95139e-015
rhumerus 36.5193 -9.7698 -13.7611
rradius 96.1118
rwrist -72.014
rhand -26.9711 -5.05893
rfingers 7.12502
rthumb -0.392189 -35.0383
lclavicle 1.63997e-014 -7.95139e-015
lhumerus 50.3891 16.9917 30.2945
lradius 95.9953
lwrist 41.7483
lhand -46.8232 19.571
lfingers 7.12502
lthumb -19.5373 48.6093
rfemur 4.29209 3.7791 25.3348
rtibia 38.039
rfoot 11.1901 -25.498
rtoes -8.63863
lfemur 4.47162 -7.50107 -19.6244
ltibia 32.667
lfoot 14.8281 7.11204
ltoes -13.6524
